<svg width="726" height="107" viewBox="0 0 726 107" fill="none" xmlns="http://www.w3.org/2000/svg">
<path d="M576.841 78.7638C569.072 95.4749 552.637 107 533.616 107C516.329 107 501.178 97.4788 492.728 83.1974C498.379 84.3255 504.888 84.9267 511.897 85.1143C512.476 85.1299 513.061 85.1415 513.651 85.1515C519.233 89.4543 526.139 92.0001 533.616 92.0001C542.742 92 551.016 88.208 557.071 82.0567C563.481 81.1544 570.093 80.0559 576.841 78.7638ZM129.451 40.4083C134.411 40.4083 138.395 41.4802 141.403 43.6241C144.443 45.7361 146.54 48.6961 147.692 52.504C148.843 56.2799 149.051 60.6478 148.316 65.6075L147.692 69.3995H115.436C115.02 71.9272 115.067 74.1357 115.579 76.0235C116.091 77.8793 117.035 79.3199 118.411 80.3438C119.819 81.3357 121.596 81.8321 123.739 81.8321C126.043 81.8321 128.124 81.32 129.98 80.296C131.868 79.272 133.324 77.5919 134.348 75.256H146.827C145.771 78.7759 143.963 81.7844 141.403 84.2804C138.844 86.7762 135.899 88.6803 132.571 89.9923C129.244 91.3042 125.883 91.96 122.491 91.9601C117.724 91.96 113.676 90.9357 110.348 88.8878C107.02 86.8078 104.62 83.8795 103.148 80.1036C101.708 76.3277 101.372 71.8797 102.14 66.7599C102.844 61.8 104.412 57.3362 106.844 53.3683C109.308 49.3683 112.46 46.2162 116.3 43.9122C120.14 41.5763 124.523 40.4083 129.451 40.4083ZM255.677 40.4083C260.637 40.4083 264.621 41.4802 267.629 43.6241C270.669 45.7361 272.765 48.6962 273.917 52.504C275.069 56.2798 275.276 60.6478 274.54 65.6075L273.917 69.3995H241.66C241.244 71.9273 241.293 74.1356 241.805 76.0235C242.317 77.8795 243.261 79.3199 244.637 80.3438C246.045 81.3357 247.821 81.8321 249.965 81.8321C252.269 81.8321 254.348 81.3198 256.204 80.296C258.092 79.272 259.548 77.5919 260.572 75.256H273.053C271.997 78.7759 270.189 81.7844 267.629 84.2804C265.069 86.7763 262.125 88.6803 258.797 89.9923C255.469 91.3042 252.109 91.96 248.717 91.9601C243.949 91.9601 239.9 90.9357 236.572 88.8878C233.245 86.8078 230.844 83.8794 229.372 80.1036C227.932 76.3277 227.596 71.8796 228.364 66.7599C229.068 61.8 230.637 57.3362 233.068 53.3683C235.532 49.3683 238.685 46.2162 242.525 43.9122C246.365 41.5762 250.749 40.4083 255.677 40.4083ZM353.748 40.4083C359.764 40.4083 364.372 41.7516 367.572 44.4395C370.804 47.1275 372.1 50.9198 371.46 55.8155H359.844C359.78 53.8958 359.06 52.4234 357.684 51.3995C356.34 50.3438 354.532 49.8155 352.26 49.8155C349.956 49.8155 347.972 50.2484 346.308 51.1124C344.676 51.9764 343.749 53.2882 343.525 55.0479C343.333 56.3599 343.796 57.4001 344.916 58.1681C346.068 58.904 347.908 59.544 350.436 60.088L358.02 61.9122C360.644 62.5842 362.724 63.5124 364.26 64.6964C365.828 65.8483 366.98 67.1124 367.716 68.4884C368.484 69.8643 368.949 71.2563 369.109 72.6642C369.3 74.04 369.301 75.2884 369.109 76.4083C368.66 79.704 367.412 82.5197 365.364 84.8556C363.316 87.1594 360.66 88.9198 357.397 90.1358C354.133 91.3518 350.484 91.96 346.452 91.9601C343.061 91.9601 339.876 91.4002 336.901 90.2804C333.957 89.1284 331.556 87.3361 329.7 84.9044C327.876 82.4404 326.932 79.2556 326.868 75.3517H338.916C339.076 77.1116 339.62 78.5044 340.548 79.5284C341.508 80.5523 342.644 81.2885 343.956 81.7364C345.268 82.1524 346.532 82.3604 347.748 82.3604C350.34 82.3604 352.484 81.9442 354.18 81.1124C355.876 80.2484 356.853 78.9358 357.109 77.1759C357.3 75.8322 356.98 74.76 356.149 73.9601C355.317 73.1601 353.828 72.5518 351.684 72.1358L343.476 70.3116C339.284 69.3836 336.036 67.8154 333.733 65.6075C331.461 63.3675 330.596 60.1996 331.14 56.1036C331.524 53.1278 332.66 50.4559 334.548 48.088C336.436 45.7201 338.996 43.8478 342.228 42.4718C345.46 41.0958 349.3 40.4083 353.748 40.4083ZM400.314 40.4083C405.113 40.4083 409.098 41.4802 412.266 43.6241C415.465 45.736 417.721 48.7439 419.033 52.6476C420.377 56.5515 420.666 61.1599 419.898 66.4718C419.162 71.4636 417.578 75.8799 415.146 79.7198C412.746 83.5278 409.641 86.5204 405.833 88.6964C402.057 90.8722 397.705 91.96 392.777 91.9601C388.042 91.9601 384.073 90.9199 380.873 88.8399C377.673 86.76 375.385 83.8158 374.009 80.0079C372.665 76.2 372.362 71.6876 373.098 66.4718C373.866 61.2559 375.482 56.696 377.945 52.7921C380.441 48.8881 383.609 45.848 387.449 43.672C391.289 41.496 395.578 40.4083 400.314 40.4083ZM665.621 49.4122C667.441 53.6313 667.898 59.1254 666.988 65.8956C665.9 73.7675 663.276 80.0876 659.116 84.8556C654.956 89.5915 649.484 91.96 642.7 91.9601C640.365 91.96 638.364 91.64 636.7 91.0001C635.036 90.3601 633.66 89.512 632.572 88.4561C631.516 87.3682 630.684 86.1675 630.076 84.8556C629.468 83.5438 629.036 82.2 628.78 80.8243L625.805 91.0001H615.725L618.815 68.4854C623.935 66.9338 628.852 65.3198 633.53 63.6593C633.407 64.316 633.295 64.9975 633.196 65.7042C632.396 71.56 632.653 75.7197 633.965 78.1837C635.309 80.6476 637.677 81.8799 641.068 81.88C643.948 81.8799 646.525 80.6476 648.797 78.1837C651.069 75.6877 652.604 71.5277 653.404 65.7042C653.971 61.5563 653.822 58.2797 652.957 55.8741C653.955 55.4193 654.934 54.9653 655.892 54.5079C659.342 52.8599 662.604 51.1571 665.621 49.4122ZM714.673 41.3204H725.425L723.937 51.1124H713.233L709.393 77.4161C709.137 79.24 709.329 80.408 709.969 80.92C710.641 81.4319 711.681 81.6876 713.089 81.6876H719.568L718.273 90.3282C717.601 90.6161 716.577 90.8877 715.201 91.1436C713.857 91.3996 712.001 91.5284 709.633 91.5284C705.345 91.5284 702.113 90.9677 699.937 89.8477C697.761 88.7278 696.353 87.1595 695.713 85.1436C695.105 83.1277 694.993 80.7917 695.377 78.1358L699.36 51.1124H691.537L693.025 41.3683H701.281L705.697 26.3917H716.881L714.673 41.3204ZM54.0001 34.0724H34.1281L25.6798 91.0001H11.8566L20.2081 34.0724H0.00012207L1.87219 21.5919H55.8722L54.0001 34.0724ZM69.5079 47.8956C70.8839 46.1677 72.7236 44.5994 75.0275 43.1915C77.3315 41.7835 80.4043 41.0802 84.2443 41.0802C87.284 41.0802 89.9878 41.7361 92.3556 43.0479C94.7554 44.3279 96.5476 46.136 97.7316 48.4718C98.9475 50.8077 99.316 53.5439 98.8361 56.6798L93.8439 91.0001H79.9718L84.6281 58.6476C84.9479 56.536 84.4038 54.8881 82.9962 53.7042C81.6203 52.5203 79.8439 51.9279 77.6681 51.9278C76.1641 51.9278 74.7079 52.2002 73.2999 52.7442C71.8921 53.2882 70.6922 54.0879 69.7003 55.1436C68.7403 56.1996 68.1638 57.4963 67.9718 59.0323L63.2677 91.0001H49.3956L59.7638 19.672H73.588L69.5079 47.8956ZM203.145 21.5919C212.008 21.5919 218.345 23.16 222.152 26.296C225.96 29.432 227.432 33.9601 226.568 39.88C226.056 43.2718 224.761 46.2478 222.681 48.8077C220.633 51.3356 217.272 53.5438 212.601 55.4317C215.321 56.1997 217.449 57.2082 218.984 58.4561C220.552 59.6721 221.689 61.0482 222.393 62.5841C223.097 64.088 223.496 65.6722 223.592 67.336C223.688 69 223.609 70.6484 223.353 72.2804C222.425 78.6481 219.624 83.3676 214.952 86.4395C210.28 89.4795 203.32 91.0001 194.072 91.0001H168.345L178.616 21.5919H203.145ZM311.258 40.9356C314.202 40.9357 316.843 41.64 319.179 43.0479C321.547 44.4239 323.339 46.3924 324.555 48.9522C325.771 51.4801 326.122 54.4721 325.61 57.9278L320.666 91.0001H306.794L311.45 59.6075C311.834 57.1438 311.338 55.2563 309.962 53.9444C308.618 52.6005 306.89 51.9279 304.778 51.9278C303.306 51.9278 301.85 52.2002 300.41 52.7442C298.97 53.2562 297.738 54.024 296.714 55.0479C295.722 56.0719 295.115 57.352 294.891 58.8878L290.09 91.0001H276.219L283.658 41.3683H297.194L296.33 47.752C297.45 46.536 298.667 45.4157 299.979 44.3917C301.323 43.3678 302.907 42.5355 304.731 41.8956C306.554 41.2557 308.73 40.9357 311.258 40.9356ZM456.327 40.9356C459.271 40.9357 461.911 41.64 464.247 43.0479C466.615 44.4239 468.407 46.3923 469.623 48.9522C470.444 50.659 470.869 52.5774 470.902 54.7071C469.546 57.7467 468.729 61.4966 469.527 65.6251L465.735 91.0001H451.863L456.519 59.6075C456.903 57.144 456.407 55.2563 455.031 53.9444C453.687 52.6005 451.959 51.9279 449.847 51.9278C448.375 51.9279 446.919 52.2004 445.48 52.7442C444.04 53.2562 442.807 54.024 441.783 55.0479C440.791 56.0719 440.183 57.3519 439.959 58.8878L435.159 91.0001H421.287L428.727 41.3683H442.263L441.4 47.752C442.52 46.5361 443.735 45.4156 445.047 44.3917C446.391 43.3677 447.975 42.5356 449.799 41.8956C451.623 41.2556 453.799 40.9356 456.327 40.9356ZM595.628 91.0001H581.707L583.612 77.4112C584.217 77.2855 584.823 77.1602 585.429 77.0313C589.695 76.1245 593.893 75.1647 598.008 74.1602L595.628 91.0001ZM681.688 91.0001H668.391L675.158 43.0743C675.881 42.5089 676.574 41.9405 677.235 41.3683H688.695L681.688 91.0001ZM487.487 70.8643C491.696 72.4518 497.399 73.5307 504.293 74.0968C506.117 77.4831 508.465 80.5203 511.224 83.0909C503.832 82.8611 497.102 82.1612 491.432 80.8761C489.786 77.7283 488.458 74.3753 487.487 70.8643ZM398.777 50.7276C396.378 50.7276 394.346 51.4162 392.682 52.7921C391.018 54.136 389.705 55.9757 388.745 58.3116C387.785 60.6156 387.114 63.1763 386.73 65.9923C386.346 68.584 386.281 71.0798 386.537 73.4796C386.825 75.8475 387.577 77.7842 388.793 79.2882C390.041 80.792 391.929 81.544 394.457 81.544C396.793 81.544 398.777 80.8239 400.409 79.3839C402.073 77.9439 403.402 76.0558 404.394 73.7198C405.386 71.352 406.073 68.776 406.457 65.9923C406.809 63.3683 406.842 60.8878 406.554 58.5518C406.298 56.216 405.562 54.3277 404.346 52.8878C403.13 51.4478 401.273 50.7277 398.777 50.7276ZM183.897 80.1524H195.944C199.944 80.1524 203.112 79.3035 205.448 77.6075C207.784 75.8796 209.16 73.592 209.576 70.7442C209.864 68.6963 209.609 66.9835 208.809 65.6075C208.009 64.2317 206.792 63.1923 205.16 62.4884C203.56 61.7844 201.672 61.4317 199.496 61.4317H186.632L183.897 80.1524ZM580.621 67.169C579.977 70.4193 579.029 73.554 577.811 76.5401C571.455 77.7784 565.219 78.8436 559.158 79.7354C561.497 76.8876 563.403 73.6448 564.774 70.1153C569.948 69.2579 575.242 68.2775 580.621 67.169ZM599.657 62.7823C599.583 63.1247 599.52 63.4747 599.468 63.8321L598.309 72.0265C593.967 73.0952 589.529 74.1152 585.013 75.0753C584.644 75.1536 584.275 75.2286 583.907 75.3058L585.185 66.2003C590.125 65.1259 594.957 63.9823 599.657 62.7823ZM533.616 7.00009C560.126 7.0003 581.616 29.386 581.616 57.0001C581.616 59.7394 581.404 62.4273 580.997 65.047C575.75 66.1386 570.584 67.1105 565.532 67.962C566.623 64.5136 567.216 60.829 567.216 57.0001C567.216 37.6703 552.173 22.0003 533.616 22.0001C515.06 22.0001 500.016 37.6701 500.016 57.0001C500.016 62.3676 501.177 67.4522 503.25 71.9981C497.869 71.4976 493.331 70.6729 489.776 69.5421C488.696 69.1987 487.735 68.8357 486.885 68.4601C486.056 64.7799 485.616 60.9435 485.616 57.0001C485.616 56.228 485.634 55.4599 485.667 54.6964L485.676 54.5235C485.873 50.3764 486.565 46.2714 487.736 42.3038L488.028 41.3155C494.344 21.3848 512.366 7.00009 533.616 7.00009ZM657.911 41.5919C660.604 42.6761 662.766 44.5047 664.397 47.0802C664.509 47.2576 664.617 47.4389 664.723 47.6222C661.737 49.3531 658.488 51.0512 655.029 52.7032C654.066 53.1633 653.081 53.6206 652.076 54.0782C650.57 51.7492 648.293 50.5841 645.244 50.5841C641.916 50.5842 639.245 51.8482 637.229 54.3761C635.862 56.0949 634.799 58.4207 634.04 61.3536C629.309 63.0556 624.321 64.7132 619.114 66.3058L620.411 56.8556C635.395 52.0847 648.253 46.8249 657.911 41.5919ZM617.611 40.4083C618.059 40.4083 618.46 40.44 618.812 40.504C619.196 40.536 619.468 40.6004 619.628 40.6964L617.756 54.0401C617.5 53.9122 617.18 53.8319 616.796 53.7999C616.444 53.7679 616.124 53.7362 615.836 53.7042C612.22 53.3842 609.259 53.6239 606.955 54.4239C604.683 55.1919 602.94 56.4084 601.724 58.0724C601.172 58.8327 600.715 59.6557 600.351 60.5411C595.53 61.7875 590.565 62.9759 585.481 64.0909L588.668 41.3683H602.06L600.428 53.128C601.548 50.6001 602.956 48.392 604.651 46.504C606.347 44.584 608.284 43.0961 610.46 42.0401C612.668 40.9523 615.052 40.4083 617.611 40.4083ZM127.964 50.2003C125.916 50.2003 124.075 50.7283 122.443 51.7843C120.844 52.8082 119.532 54.1518 118.508 55.8155C117.484 57.4795 116.827 59.224 116.539 61.0479H136.027C136.347 59.0641 136.267 57.2402 135.787 55.5763C135.307 53.9123 134.428 52.5997 133.148 51.6397C131.868 50.6799 130.14 50.2004 127.964 50.2003ZM254.189 50.2003C252.141 50.2003 250.301 50.7284 248.669 51.7843C247.069 52.8082 245.757 54.1517 244.733 55.8155C243.709 57.4795 243.053 59.224 242.765 61.0479H262.253C262.573 59.0642 262.493 57.2401 262.013 55.5763C261.533 53.9123 260.652 52.5997 259.372 51.6397C258.092 50.68 256.364 50.2003 254.189 50.2003ZM635.597 48.088C636.365 47.032 637.277 46.0404 638.333 45.1124C639.389 44.1844 640.589 43.3681 641.933 42.6642C643.277 41.9602 644.717 41.4163 646.253 41.0323C647.821 40.6164 649.469 40.4083 651.196 40.4083C652.612 40.4083 653.939 40.5344 655.177 40.7833C653.746 41.5287 652.247 42.2767 650.682 43.0245C642.315 47.021 632.16 50.9799 620.713 54.6612L625.517 19.672H639.484L635.597 48.088ZM188.216 50.296H201.08C202.456 50.296 203.8 50.1355 205.112 49.8155C206.424 49.4635 207.624 48.9355 208.712 48.2315C209.832 47.5276 210.76 46.6161 211.496 45.4962C212.232 44.3762 212.713 43.0636 212.937 41.5597C213.417 38.552 212.68 36.2802 210.729 34.7442C208.809 33.2083 206.169 32.4396 202.809 32.4395H190.857L188.216 50.296Z" fill="#F87216"/>
<path d="M679.021 28.9611L681.822 33.3927C680.32 35.6247 678.424 37.6407 676.389 39.4503C671.207 44.0572 663.786 48.5204 655.029 52.7033C637.395 61.1272 612.678 69.1949 585.013 75.0753C557.348 80.9557 531.486 83.6384 511.95 83.1154C502.249 82.8557 493.653 81.7978 487.046 79.6964C483.75 78.6482 480.522 77.2083 477.835 75.1369C475.097 73.0261 472.474 69.8857 471.548 65.5265C470.621 61.1676 471.739 57.2323 473.382 54.1906C474.994 51.2053 477.359 48.5767 479.943 46.2785C481.665 44.7474 483.635 43.2318 485.818 41.7375C484.602 45.8591 483.883 50.1224 483.678 54.4289C480.36 57.7916 478.837 60.9837 479.445 63.8478C482.235 76.9712 528.695 78.2151 583.217 66.6261C629.329 56.8246 666.438 40.9819 675.102 28.3888L679.021 28.9611Z" fill="#4169E1"/>
<path d="M679.832 6.41653C679.966 5.49796 681.171 5.24194 681.667 6.02655L687.464 15.1943C687.62 15.4409 687.876 15.6072 688.165 15.6493L698.898 17.2163C699.816 17.3504 700.072 18.5548 699.288 19.051L690.12 24.8479C689.873 25.0039 689.707 25.2599 689.665 25.5487L688.098 36.2816C687.964 37.2002 686.759 37.4562 686.263 36.6716L680.466 27.5039C680.31 27.2572 680.054 27.091 679.765 27.0488L669.032 25.4819C668.114 25.3478 667.858 24.1433 668.643 23.6472L677.81 17.8502C678.057 17.6942 678.223 17.4383 678.265 17.1495L679.832 6.41653Z" fill="#60A5FA"/>
</svg>
