<svg width="125" height="100" viewBox="0 0 125 100" fill="none" xmlns="http://www.w3.org/2000/svg">
<path d="M92.481 87.8987C79.5863 98.9618 61.6816 103.027 45.0802 96.9847C28.4786 90.9422 17.3751 76.319 14.6085 59.5555C23.8812 67.4443 36.5667 74.7308 51.2366 80.0702C55.7215 81.7026 60.1821 83.0738 64.5609 84.1924L65.8866 93.2704C66.2889 96.0262 69.9023 96.7941 71.3907 94.4403L76.3324 86.625C82.0051 87.5117 87.4342 87.933 92.481 87.8987Z" fill="url(#paint0_radial_1090_262)"/>
<path d="M79.2822 3.01542C97.1817 9.53037 108.693 26.0199 110.251 44.4125L110.323 45.6079C110.598 50.1621 110.267 54.7662 109.32 59.2872L109.186 59.9282C108.7 62.0995 108.069 64.2668 107.286 66.417C106.526 68.5073 105.644 70.5175 104.656 72.4431C102.671 72.9853 100.194 73.4383 97.1174 73.6953L96.0919 73.772C91.2337 74.089 85.6513 73.838 79.5891 72.9575L78.1099 62.828L78.0633 62.5762C77.5029 60.1101 74.2671 59.4225 72.7521 61.4475L72.6058 61.6582L67.0858 70.3854C63.481 69.4337 59.7803 68.2814 56.0248 66.9145C40.4103 61.2313 27.8936 53.341 20.1875 45.6951C17.996 43.5207 16.3878 41.5818 15.2165 39.891C15.6971 37.7802 16.3151 35.6736 17.076 33.5831C17.8674 31.4087 18.7892 29.3211 19.8265 27.3251L20.1 26.8136C22.2806 22.7417 24.9867 19.0021 28.1247 15.6901L28.9378 14.8325C41.954 1.7361 61.3775 -3.50138 79.2822 3.01542Z" fill="url(#paint1_radial_1090_262)"/>
<path d="M27.2024 14.2748C23.7315 17.6733 20.7611 21.5699 18.3997 25.8509C13.0131 27.4825 10.9877 29.8431 10.4979 31.189C9.80268 33.099 10.1599 38.5642 18.7786 47.1155C26.7331 55.0078 39.5172 63.0347 55.3406 68.794C57.6988 69.6523 60.0384 70.4266 62.3484 71.1233L56.7777 71.938C54.022 72.3403 53.254 75.9537 55.6078 77.4421L61.8628 81.3971C58.5823 80.4726 55.2597 79.4063 51.9204 78.1909C18.1868 65.9129 -4.56584 43.3382 1.10094 27.7688C4.00381 19.7932 13.8013 15.2047 27.2024 14.2748Z" fill="url(#paint2_linear_1090_262)"/>
<path d="M111.939 45.1164C121.608 54.443 126.164 64.2557 123.261 72.2314C119.245 83.2647 102.035 87.8168 80.343 85.1646L87.2201 84.1613C89.9753 83.7587 90.7433 80.1456 88.3899 78.6572L83.3002 75.4381C88.39 75.9666 93.1021 76.0381 97.2833 75.6889C109.382 74.6782 113.169 70.7212 113.864 68.8112C114.354 67.4653 114.319 64.3552 111.241 59.6425C112.184 54.8451 112.413 49.951 111.939 45.1164Z" fill="url(#paint3_linear_1090_262)"/>
<path d="M87.3215 80.3478L87.3884 80.3982C87.3662 80.3816 87.3456 80.3631 87.3215 80.3478Z" fill="url(#paint4_linear_1090_262)"/>
<path d="M74.2967 62.7269C74.7928 61.9423 75.9973 62.1983 76.1314 63.1169L77.6984 73.8499C77.7405 74.1387 77.9067 74.3946 78.1534 74.5506L87.3211 80.3476C88.1057 80.8437 87.8497 82.0482 86.9311 82.1823L76.1982 83.7492C75.9094 83.7914 75.6534 83.9576 75.4975 84.2043L69.7005 93.372C69.2044 94.1566 67.9999 93.9006 67.8658 92.982L66.2988 82.2491C66.2567 81.9603 66.0905 81.7043 65.8438 81.5483L56.6761 75.7514C55.8915 75.2552 56.1475 74.0508 57.0661 73.9166L67.799 72.3497C68.0878 72.3075 68.3438 72.1413 68.4997 71.8946L74.2967 62.7269Z" fill="#60A5FA"/>
<defs>
<radialGradient id="paint0_radial_1090_262" cx="0" cy="0" r="1" gradientUnits="userSpaceOnUse" gradientTransform="translate(107.116 66.3551) rotate(-160) scale(96 96)">
<stop offset="0.6" stop-color="#F97316"/>
<stop offset="0.647159" stop-color="#F87216"/>
<stop offset="0.685535" stop-color="#F67116"/>
<stop offset="0.71648" stop-color="#F26F16"/>
<stop offset="0.741345" stop-color="#EE6B16"/>
<stop offset="0.761482" stop-color="#E86815"/>
<stop offset="0.77824" stop-color="#E16315"/>
<stop offset="0.792972" stop-color="#DA5E15"/>
<stop offset="0.807028" stop-color="#D25914"/>
<stop offset="0.82176" stop-color="#CA5414"/>
<stop offset="0.838519" stop-color="#C14E14"/>
<stop offset="0.858655" stop-color="#B94913"/>
<stop offset="0.88352" stop-color="#B14313"/>
<stop offset="0.914465" stop-color="#A93E13"/>
<stop offset="0.952841" stop-color="#A13912"/>
<stop offset="1" stop-color="#9A3412"/>
</radialGradient>
<radialGradient id="paint1_radial_1090_262" cx="0" cy="0" r="1" gradientUnits="userSpaceOnUse" gradientTransform="translate(107.116 66.3551) rotate(-160) scale(96 96)">
<stop offset="0.6" stop-color="#F97316"/>
<stop offset="0.647159" stop-color="#F87216"/>
<stop offset="0.685535" stop-color="#F67116"/>
<stop offset="0.71648" stop-color="#F26F16"/>
<stop offset="0.741345" stop-color="#EE6B16"/>
<stop offset="0.761482" stop-color="#E86815"/>
<stop offset="0.77824" stop-color="#E16315"/>
<stop offset="0.792972" stop-color="#DA5E15"/>
<stop offset="0.807028" stop-color="#D25914"/>
<stop offset="0.82176" stop-color="#CA5414"/>
<stop offset="0.838519" stop-color="#C14E14"/>
<stop offset="0.858655" stop-color="#B94913"/>
<stop offset="0.88352" stop-color="#B14313"/>
<stop offset="0.914465" stop-color="#A93E13"/>
<stop offset="0.952841" stop-color="#A13912"/>
<stop offset="1" stop-color="#9A3412"/>
</radialGradient>
<linearGradient id="paint2_linear_1090_262" x1="121.638" y1="76.6902" x2="-0.521923" y2="32.2276" gradientUnits="userSpaceOnUse">
<stop offset="0.6" stop-color="#4169E1"/>
<stop offset="0.647159" stop-color="#4169E0"/>
<stop offset="0.685535" stop-color="#4067DE"/>
<stop offset="0.71648" stop-color="#3E65DB"/>
<stop offset="0.741345" stop-color="#3C63D7"/>
<stop offset="0.761482" stop-color="#395FD2"/>
<stop offset="0.77824" stop-color="#365CCC"/>
<stop offset="0.792972" stop-color="#3358C5"/>
<stop offset="0.807028" stop-color="#2F53BE"/>
<stop offset="0.82176" stop-color="#2C4FB7"/>
<stop offset="0.838519" stop-color="#284AB0"/>
<stop offset="0.858655" stop-color="#2445A8"/>
<stop offset="0.88352" stop-color="#2041A1"/>
<stop offset="0.914465" stop-color="#1D3C9A"/>
<stop offset="0.952841" stop-color="#193893"/>
<stop offset="1" stop-color="#16348D"/>
</linearGradient>
<linearGradient id="paint3_linear_1090_262" x1="121.638" y1="76.6902" x2="-0.521923" y2="32.2276" gradientUnits="userSpaceOnUse">
<stop offset="0.6" stop-color="#4169E1"/>
<stop offset="0.647159" stop-color="#4169E0"/>
<stop offset="0.685535" stop-color="#4067DE"/>
<stop offset="0.71648" stop-color="#3E65DB"/>
<stop offset="0.741345" stop-color="#3C63D7"/>
<stop offset="0.761482" stop-color="#395FD2"/>
<stop offset="0.77824" stop-color="#365CCC"/>
<stop offset="0.792972" stop-color="#3358C5"/>
<stop offset="0.807028" stop-color="#2F53BE"/>
<stop offset="0.82176" stop-color="#2C4FB7"/>
<stop offset="0.838519" stop-color="#284AB0"/>
<stop offset="0.858655" stop-color="#2445A8"/>
<stop offset="0.88352" stop-color="#2041A1"/>
<stop offset="0.914465" stop-color="#1D3C9A"/>
<stop offset="0.952841" stop-color="#193893"/>
<stop offset="1" stop-color="#16348D"/>
</linearGradient>
<linearGradient id="paint4_linear_1090_262" x1="121.638" y1="76.6902" x2="-0.521923" y2="32.2276" gradientUnits="userSpaceOnUse">
<stop offset="0.6" stop-color="#4169E1"/>
<stop offset="0.647159" stop-color="#4169E0"/>
<stop offset="0.685535" stop-color="#4067DE"/>
<stop offset="0.71648" stop-color="#3E65DB"/>
<stop offset="0.741345" stop-color="#3C63D7"/>
<stop offset="0.761482" stop-color="#395FD2"/>
<stop offset="0.77824" stop-color="#365CCC"/>
<stop offset="0.792972" stop-color="#3358C5"/>
<stop offset="0.807028" stop-color="#2F53BE"/>
<stop offset="0.82176" stop-color="#2C4FB7"/>
<stop offset="0.838519" stop-color="#284AB0"/>
<stop offset="0.858655" stop-color="#2445A8"/>
<stop offset="0.88352" stop-color="#2041A1"/>
<stop offset="0.914465" stop-color="#1D3C9A"/>
<stop offset="0.952841" stop-color="#193893"/>
<stop offset="1" stop-color="#16348D"/>
</linearGradient>
</defs>
</svg>
