<svg
	xmlns="http://www.w3.org/2000/svg"
	fill="#f97316"
	viewBox="0 0 1440 1440"
>
	<path d="M1328 760c-1 25-3 49-6 74l-6 28-3 3-3-3-10-42a1097 1097 0 0 0-112-267c-42-71-94-134-158-186a491 491 0 0 0-65-44l-11-8v-2l23-3 55-7 60-7 17-2c8-1 15 1 21 7a628 628 0 0 1 198 460Zm73-133a730 730 0 0 0-59-179 626 626 0 0 0-177-209 38 38 0 0 0-28-8l-24 1-81 7a1013 1013 0 0 0-264 67c-57 22-113 47-164 79-34 21-66 44-99 65-6 5-9 11-9 19-1 51 0 102 7 152a1365 1365 0 0 0 31 164c24 95 63 183 121 262l34 43c5 7 11 11 20 11l64 1v1h10c23 0 47 2 70 0l107-7a1327 1327 0 0 0 158-19c41-6 82-14 122-22 23-5 45-13 68-19 10-3 17-9 21-18l14-30a596 596 0 0 0 57-361ZM289 556a13 13 0 0 1-2 4v1c-3 3-7 5-13 5a14 14 0 0 1-12-7 18 18 0 0 1-1-2l-17-30c-23-44-49-86-82-123l-6-8c-6-7-6-13-1-19s13-8 20-3a45 45 0 0 1 9 8 580 580 0 0 1 104 162 16 16 0 0 1 2 8 13 13 0 0 1-1 4Zm31-29c-7-26-20-49-33-72-25-42-57-80-92-114a60 60 0 0 0-50-18c-7 1-12-1-15-7l-27-43c-5-7-5-10 1-16 7-8 10-17 8-27a36 36 0 0 0-33-31c-19-1-34 10-39 26l-2 6v10a8 8 0 0 1 1 1c6 19 21 29 40 27 5-1 8 1 10 6l21 49c3 6 3 12 0 18a76 76 0 0 0-9 29 198 198 0 0 0 5 73l27 87c6 22 14 43 26 62 17 24 38 43 67 51 43 12 85-11 96-54 5-21 3-42-2-63Zm777 697c-16 0-29-12-29-28 0-15 13-27 29-27 14 0 28 13 28 27 0 15-13 28-28 28Zm-138 5a28 28 0 0 1-27-27 28 28 0 0 1 28-28c15 1 29 14 29 28 0 15-14 27-30 27ZM463 226v-3l10-8c16-8 32-17 49-24a850 850 0 0 1 145-47 331 331 0 0 1 58-7l60-1c39 1 77 6 114 18v1l-7 4-69 21a63 63 0 0 1-35 1c-22-6-45-7-68-8-56-1-110 9-163 24-30 8-60 19-89 28a12 12 0 0 1-3 1 12 12 0 0 1-2 0Zm886 828a38 38 0 0 0-13 2l-106 32c-27 7-55 11-82 16a1933 1933 0 0 1-165 21c-27 2-53 5-80 6l-133 1-68-1c-12 0-22-5-30-14a795 795 0 0 1-167-317c-10-40-17-80-25-120-8-42-11-86-12-129l-2-98c-1-7 2-13 8-17 43-30 87-62 133-88a1234 1234 0 0 1 380-134 833 833 0 0 1 120-12l34-2c9-1 16-6 19-15 2-8 1-16-6-22-3-3-8-5-12-6l-61-1c-13 1-25-1-36-6-50-23-102-39-156-49a645 645 0 0 0-95-11 13 13 0 0 1-3-1h-46l-17 2c-36 2-72 8-107 16a642 642 0 0 0-311 161 697 697 0 0 0-63 68c-5 6-5 8 0 15l49 63c21 28 39 58 50 92 7 24 12 48 9 73-4 42-33 85-79 95-38 8-74-1-105-25-13-10-23-22-33-34l-13-13h-2l-4 17-9 96c-2 34 1 67 7 100a639 639 0 0 0 137 302 657 657 0 0 0 195 158c33 17 67 30 101 43 37 14 75 21 113 27 38 7 77 9 116 9a680 680 0 0 0 196-33q141-45 249-146l40-41c5-6 12-10 20-13l64-20c11-3 18-9 21-20 3-13-6-25-20-27Z" />
</svg>